<svg width="219" height="70" viewBox="0 0 219 70" fill="none" xmlns="http://www.w3.org/2000/svg">
<path d="M178.87 31.4664C179.019 31.3772 179.204 31.3772 179.353 31.4664L182.093 33.113C182.236 33.1985 182.323 33.353 182.323 33.5199V33.6166H185.534V31.5839C185.534 31.4171 185.447 31.2625 185.305 31.177L179.353 27.6011C179.204 27.5119 179.019 27.5119 178.87 27.6011L172.919 31.177C172.776 31.2625 172.689 31.4171 172.689 31.5839V33.6166H175.9V33.5199C175.9 33.353 175.988 33.1985 176.13 33.113L178.87 31.4664Z" fill="url(#paint0_linear)"/>
<path d="M178.87 31.4664C179.019 31.3772 179.204 31.3772 179.353 31.4664L182.093 33.113C182.236 33.1985 182.323 33.353 182.323 33.5199V33.6166H185.534V31.5839C185.534 31.4171 185.447 31.2625 185.305 31.177L179.353 27.6011C179.204 27.5119 179.019 27.5119 178.87 27.6011L172.919 31.177C172.776 31.2625 172.689 31.4171 172.689 31.5839V33.6166H175.9V33.5199C175.9 33.353 175.988 33.1985 176.13 33.113L178.87 31.4664Z" fill="url(#paint1_linear)"/>
<path d="M172.689 36.5947V38.6842C172.689 38.8502 172.776 39.0039 172.919 39.089L178.87 42.6463C179.019 42.7351 179.204 42.7351 179.353 42.6463L185.305 39.089C185.447 39.0039 185.534 38.8502 185.534 38.6842V36.5947H182.323V36.7583C182.323 36.9243 182.236 37.078 182.093 37.1631L179.353 38.8011C179.204 38.8899 179.019 38.8899 178.87 38.8011L176.13 37.1631C175.988 37.078 175.9 36.9243 175.9 36.7583V36.5947H172.689Z" fill="url(#paint2_linear)"/>
<path d="M81.4498 40.5341V39.4814C81.4148 39.5327 81.3579 39.6012 81.2791 39.6868C81.2091 39.7638 81.0516 39.9093 80.8066 40.1233C80.5703 40.3287 80.3121 40.517 80.0321 40.6881C79.7608 40.8507 79.3976 41.0005 78.9426 41.1374C78.4963 41.2658 78.0325 41.33 77.5511 41.33C76.0459 41.33 74.6808 40.6924 73.4556 39.4172C72.2392 38.1334 71.631 36.6228 71.631 34.8854C71.631 33.148 72.2392 31.6417 73.4556 30.3664C74.6808 29.0826 76.0459 28.4408 77.5511 28.4408C78.3037 28.4408 79.0082 28.5948 79.6646 28.9029C80.3209 29.211 80.7803 29.5106 81.0429 29.8016L81.4498 30.2766V28.6975H85.0728V40.5341C85.0728 42.3913 84.4077 43.949 83.0775 45.2071C81.7561 46.4737 80.0934 47.1071 78.0893 47.1071C77.3367 47.1071 76.6148 47.0087 75.9234 46.8118C75.2321 46.6235 74.6589 46.3967 74.2038 46.1314C73.7488 45.8746 73.3506 45.6093 73.0093 45.3354C72.668 45.0616 72.4273 44.8305 72.2873 44.6422L72.0379 44.3469L74.322 42.2415C74.4095 42.3613 74.5407 42.5197 74.7158 42.7165C74.8995 42.9134 75.3065 43.1658 75.9366 43.4739C76.5666 43.7906 77.2405 43.949 77.9581 43.949C79.0345 43.949 79.8833 43.6408 80.5047 43.0246C81.1348 42.417 81.4498 41.5868 81.4498 40.5341ZM76.2516 32.6259C75.6828 33.2165 75.3984 33.9696 75.3984 34.8854C75.3984 35.7926 75.6828 36.5458 76.2516 37.1449C76.8292 37.744 77.5293 38.0435 78.3519 38.0435C79.1832 38.0435 79.9052 37.7354 80.5178 37.1192C81.1391 36.503 81.4498 35.7584 81.4498 34.8854C81.4498 34.0038 81.1391 33.2592 80.5178 32.6516C79.9052 32.0354 79.1832 31.7273 78.3519 31.7273C77.5293 31.7273 76.8292 32.0268 76.2516 32.6259Z" fill="#333333"/>
<path d="M101.33 36.3232H91.7868C91.9269 37.025 92.3075 37.6199 92.9289 38.1077C93.5502 38.587 94.3334 38.8266 95.2786 38.8266C95.9612 38.8266 96.5912 38.6982 97.1688 38.4415C97.7551 38.1762 98.1664 37.9109 98.4027 37.6455L98.7834 37.2476L100.661 39.6097L100.424 39.8408C100.31 39.9521 100.074 40.1361 99.7154 40.3929C99.3566 40.6496 98.9759 40.8807 98.5734 41.0861C98.1708 41.2829 97.6458 41.4584 96.9982 41.6125C96.3593 41.7665 95.6986 41.8435 95.016 41.8435C93.082 41.8435 91.4324 41.1888 90.0672 39.8793C88.7021 38.5613 88.0195 36.9822 88.0195 35.1421C88.0195 33.302 88.6933 31.7273 90.041 30.4178C91.3887 29.0998 93.0033 28.4408 94.8848 28.4408C96.7663 28.4408 98.3327 29.057 99.5841 30.2894C100.836 31.5133 101.461 33.0453 101.461 34.8854L101.33 36.3232ZM96.8275 32.1381C96.3025 31.693 95.6549 31.4705 94.8848 31.4705C94.1147 31.4705 93.4583 31.6887 92.9157 32.1252C92.3819 32.5617 92.0056 33.1309 91.7868 33.8327H97.8383C97.6983 33.148 97.3613 32.5831 96.8275 32.1381Z" fill="#333333"/>
<path d="M108.057 28.6975V30.2766C108.162 30.1396 108.311 29.9727 108.504 29.7759C108.696 29.5705 109.116 29.2966 109.764 28.9543C110.42 28.6119 111.107 28.4408 111.825 28.4408C113.33 28.4408 114.555 28.95 115.5 29.9685C116.454 30.9869 116.931 32.3606 116.931 34.0894V41.5868H113.308V34.4874C113.308 33.7 113.067 33.0667 112.586 32.5874C112.113 32.0996 111.501 31.8556 110.748 31.8556C109.926 31.8556 109.269 32.121 108.779 32.6516C108.298 33.1737 108.057 33.9183 108.057 34.8854V41.5868H104.434V28.6975H108.057Z" fill="#333333"/>
<path d="M124.459 28.6975V41.5868H120.823V28.6975H124.459ZM124.144 23.588C124.529 23.9475 124.721 24.4268 124.721 25.0259C124.721 25.6164 124.529 26.0914 124.144 26.4509C123.759 26.8103 123.234 26.9901 122.569 26.9901C121.956 26.9901 121.466 26.8103 121.098 26.4509C120.74 26.0914 120.56 25.6164 120.56 25.0259C120.56 24.4268 120.744 23.9475 121.111 23.588C121.479 23.2286 121.965 23.0488 122.569 23.0488C123.234 23.0488 123.759 23.2286 124.144 23.588Z" fill="#333333"/>
<path d="M137.237 41.5868V40.2773C137.132 40.3971 136.984 40.5469 136.791 40.7266C136.599 40.8978 136.174 41.1289 135.518 41.4199C134.87 41.7023 134.188 41.8435 133.47 41.8435C131.965 41.8435 130.735 41.3514 129.781 40.3672C128.836 39.3744 128.364 38.0563 128.364 36.4131V28.6975H131.987V36.0665C131.987 36.7854 132.227 37.3802 132.709 37.8509C133.199 38.3217 133.811 38.557 134.546 38.557C135.369 38.557 136.021 38.296 136.502 37.7739C136.992 37.2518 137.237 36.5072 137.237 35.5401V28.6975H140.86V41.5868H137.237Z" fill="#333333"/>
<path d="M153.888 30.4178L152.011 32.5104C151.959 32.4419 151.871 32.3478 151.749 32.2279C151.635 32.1081 151.39 31.9541 151.014 31.7658C150.637 31.5689 150.252 31.4705 149.859 31.4705C149.36 31.4705 148.966 31.5775 148.677 31.7914C148.388 31.9969 148.244 32.2365 148.244 32.5104C148.244 32.8442 148.45 33.1223 148.861 33.3448C149.272 33.5674 149.771 33.7685 150.357 33.9482C150.952 34.1194 151.552 34.3291 152.156 34.5773C152.76 34.8169 153.267 35.2106 153.678 35.7584C154.09 36.2976 154.295 36.9694 154.295 37.7739C154.295 38.9293 153.827 39.8965 152.891 40.6753C151.963 41.4541 150.686 41.8435 149.058 41.8435C148.358 41.8435 147.693 41.7622 147.063 41.5996C146.432 41.437 145.921 41.2402 145.527 41.0091C145.133 40.778 144.787 40.5512 144.49 40.3287C144.201 40.0976 143.991 39.905 143.86 39.751L143.676 39.4814L145.697 37.5172C145.767 37.6199 145.877 37.7525 146.026 37.9151C146.183 38.0692 146.507 38.2832 146.997 38.557C147.487 38.8223 147.995 38.955 148.52 38.955C149.097 38.955 149.53 38.848 149.819 38.6341C150.117 38.4115 150.265 38.1248 150.265 37.7739C150.265 37.423 150.06 37.132 149.649 36.9009C149.237 36.6613 148.73 36.4559 148.126 36.2847C147.522 36.105 146.923 35.891 146.327 35.6428C145.741 35.3946 145.242 35.0095 144.831 34.4874C144.42 33.9653 144.214 33.3063 144.214 32.5104C144.214 31.4748 144.704 30.5376 145.684 29.6989C146.673 28.8601 147.885 28.4408 149.32 28.4408C150.23 28.4408 151.066 28.6076 151.828 28.9414C152.598 29.2752 153.131 29.6004 153.429 29.9171L153.888 30.4178Z" fill="#333333"/>
<path d="M159.436 39.8408C158.027 38.4971 157.322 36.9309 157.322 35.1421C157.322 33.3534 158.027 31.7914 159.436 30.4563C160.845 29.1126 162.516 28.4408 164.45 28.4408C165.133 28.4408 165.78 28.5349 166.393 28.7232C167.014 28.9029 167.522 29.1212 167.916 29.3779C168.31 29.6261 168.66 29.8786 168.966 30.1354C169.272 30.3921 169.495 30.6146 169.635 30.8029L169.832 31.0725L167.548 33.3063C167.478 33.1865 167.36 33.0282 167.194 32.8313C167.036 32.6345 166.686 32.382 166.144 32.0739C165.61 31.7572 165.045 31.5989 164.45 31.5989C163.496 31.5989 162.674 31.9455 161.982 32.6388C161.3 33.332 160.959 34.1707 160.959 35.155C160.959 36.1307 161.304 36.9651 161.996 37.6584C162.687 38.3516 163.505 38.6982 164.45 38.6982C165.045 38.6982 165.61 38.557 166.144 38.2746C166.686 37.9922 167.08 37.7097 167.325 37.4273L167.679 36.9908L169.832 39.2246C169.78 39.2931 169.705 39.3915 169.609 39.5199C169.522 39.6397 169.312 39.8494 168.979 40.1489C168.646 40.4399 168.288 40.701 167.903 40.932C167.518 41.1546 167.014 41.3643 166.393 41.5611C165.78 41.7494 165.133 41.8435 164.45 41.8435C162.516 41.8435 160.845 41.176 159.436 39.8408Z" fill="#333333"/>
<path d="M194.169 28.4408C194.921 28.4408 195.621 28.5948 196.269 28.9029C196.925 29.211 197.389 29.5106 197.66 29.8016L198.067 30.2766V23.1772H201.69V41.5868H198.067V40.0077C198.032 40.0591 197.975 40.1275 197.897 40.2131C197.827 40.2901 197.669 40.4356 197.424 40.6496C197.188 40.855 196.93 41.0433 196.65 41.2145C196.37 41.3771 196.006 41.5226 195.56 41.651C195.114 41.7793 194.65 41.8435 194.169 41.8435C192.462 41.8435 190.979 41.1974 189.719 39.905C188.467 38.6041 187.842 37.0165 187.842 35.1421C187.842 33.2678 188.467 31.6845 189.719 30.3921C190.979 29.0912 192.462 28.4408 194.169 28.4408ZM192.554 37.6969C193.184 38.3645 193.946 38.6982 194.838 38.6982C195.731 38.6982 196.492 38.3645 197.122 37.6969C197.752 37.0293 198.067 36.1777 198.067 35.1421C198.067 34.1066 197.752 33.2592 197.122 32.6002C196.492 31.9327 195.731 31.5989 194.838 31.5989C193.946 31.5989 193.184 31.9327 192.554 32.6002C191.924 33.2592 191.609 34.1066 191.609 35.1421C191.609 36.1777 191.924 37.0293 192.554 37.6969Z" fill="#333333"/>
<path d="M218.092 36.3232H208.549C208.689 37.025 209.069 37.6199 209.691 38.1077C210.312 38.587 211.095 38.8266 212.041 38.8266C212.723 38.8266 213.353 38.6982 213.931 38.4415C214.517 38.1762 214.928 37.9109 215.165 37.6455L215.545 37.2476L217.422 39.6097L217.186 39.8408C217.072 39.9521 216.836 40.1361 216.477 40.3929C216.119 40.6496 215.738 40.8807 215.335 41.0861C214.933 41.2829 214.408 41.4584 213.76 41.6125C213.121 41.7665 212.461 41.8435 211.778 41.8435C209.844 41.8435 208.194 41.1888 206.829 39.8793C205.464 38.5613 204.781 36.9822 204.781 35.1421C204.781 33.302 205.455 31.7273 206.803 30.4178C208.151 29.0998 209.765 28.4408 211.647 28.4408C213.528 28.4408 215.095 29.057 216.346 30.2894C217.597 31.5133 218.223 33.0453 218.223 34.8854L218.092 36.3232ZM213.589 32.1381C213.064 31.693 212.417 31.4705 211.647 31.4705C210.877 31.4705 210.22 31.6887 209.678 32.1252C209.144 32.5617 208.768 33.1309 208.549 33.8327H214.6C214.46 33.148 214.123 32.5831 213.589 32.1381Z" fill="#333333"/>
<path d="M30.0864 29.7181C30.3 29.5898 30.5663 29.5898 30.7799 29.7181L34.7186 32.0846C34.9231 32.2075 35.0484 32.4296 35.0484 32.6694V32.8084H39.6637V29.887C39.6637 29.6472 39.5384 29.425 39.3339 29.3021L30.7799 24.1627C30.5663 24.0343 30.3 24.0343 30.0864 24.1627L21.5324 29.3021C21.3279 29.425 21.2026 29.6472 21.2026 29.887V32.8084H25.8179V32.6694C25.8179 32.4296 25.9431 32.2075 26.1477 32.0846L30.0864 29.7181Z" fill="url(#paint3_linear)"/>
<path d="M30.0864 29.7181C30.3 29.5898 30.5663 29.5898 30.7799 29.7181L34.7186 32.0846C34.9231 32.2075 35.0484 32.4296 35.0484 32.6694V32.8084H39.6637V29.887C39.6637 29.6472 39.5384 29.425 39.3339 29.3021L30.7799 24.1627C30.5663 24.0343 30.3 24.0343 30.0864 24.1627L21.5324 29.3021C21.3279 29.425 21.2026 29.6472 21.2026 29.887V32.8084H25.8179V32.6694C25.8179 32.4296 25.9431 32.2075 26.1477 32.0846L30.0864 29.7181Z" fill="url(#paint4_linear)"/>
<path d="M21.2023 37.1279V40.131C21.2023 40.3696 21.3276 40.5906 21.5322 40.7128L30.0861 45.8256C30.2997 45.9533 30.566 45.9533 30.7796 45.8256L39.3336 40.7128C39.5382 40.5906 39.6634 40.3696 39.6634 40.131V37.1279H35.0482V37.363C35.0482 37.6016 34.9229 37.8226 34.7183 37.9448L30.7796 40.299C30.566 40.4267 30.2997 40.4267 30.0861 40.299L26.1474 37.9448C25.9429 37.8226 25.8176 37.6016 25.8176 37.363V37.1279H21.2023Z" fill="url(#paint5_linear)"/>
<path d="M15.2544 26.33C15.2544 26.2932 15.2741 26.2591 15.306 26.2408L30.4576 17.5444C30.4893 17.5262 30.5283 17.5262 30.56 17.5444L45.7084 26.239C45.7327 26.253 45.7631 26.2354 45.7631 26.2074C45.7632 26.1943 45.7701 26.1822 45.7815 26.1757L50.6374 23.3836C50.7062 23.344 50.7062 23.2447 50.6374 23.2052L30.56 11.6816C30.5283 11.6634 30.4893 11.6634 30.4576 11.6816L10.2212 23.2964C10.1893 23.3148 10.1696 23.3488 10.1696 23.3856V46.6142C10.1696 46.6511 10.1893 46.6851 10.2212 46.7034L30.4576 58.3183C30.4893 58.3365 30.5283 58.3365 30.56 58.3183L50.6742 46.7735C50.7431 46.734 50.7431 46.6347 50.6742 46.5952L45.7753 43.7813C45.7436 43.7631 45.7046 43.7631 45.6729 43.7813L30.56 52.4555C30.5283 52.4737 30.4893 52.4737 30.4576 52.4555L15.306 43.7591C15.2741 43.7408 15.2544 43.7067 15.2544 43.6699V26.33Z" fill="#333333"/>
<path d="M5.0848 20.5837C5.0848 20.4837 5.13824 20.3914 5.2249 20.3416L30.3698 5.90077C30.4559 5.85134 30.5617 5.85134 30.6478 5.90077L55.93 20.4205C55.9318 20.4215 55.9328 20.4233 55.9328 20.4253C55.9328 20.4296 55.9374 20.4322 55.9411 20.4301L60.6001 17.7214C60.7857 17.6134 60.785 17.345 60.5988 17.2381L30.6478 0.0370742C30.5617 -0.012358 30.4559 -0.0123581 30.3698 0.037074L0.140104 17.3982C0.0534378 17.4479 0 17.5402 0 17.6402V52.3598C0 52.4598 0.053438 52.5521 0.140104 52.6018L30.3698 69.9629C30.4559 70.0124 30.5617 70.0124 30.6478 69.9629L60.8775 52.6018C60.9642 52.5521 61.0176 52.4598 61.0176 52.3598V40.9881C61.0176 40.888 60.9641 40.7957 60.8773 40.7459L56.3507 38.1518C56.1646 38.0451 55.9328 38.1795 55.9328 38.3939V49.4163C55.9328 49.5163 55.8794 49.6086 55.7927 49.6584L30.6478 64.0992C30.5617 64.1487 30.4559 64.1487 30.3698 64.0992L5.22491 49.6584C5.13824 49.6086 5.0848 49.5163 5.0848 49.4163V20.5837Z" fill="#333333"/>
<path d="M49.1448 33.9922L60.5986 40.6076L55.9325 43.8563L48.6569 39.6846L49.1448 33.9922Z" fill="#333333"/>
<path d="M45.9327 35.5917C45.9327 34.05 47.6035 33.0881 48.9368 33.8621L49.9369 34.4426C50.5534 34.8005 50.9328 35.4594 50.9328 36.1723V37.5133C50.9328 39.0522 49.2675 40.0146 47.9342 39.2462L46.9341 38.6699C46.3145 38.3128 45.9327 37.6521 45.9327 36.937V35.5917Z" fill="#333333"/>
<defs>
<linearGradient id="paint0_linear" x1="179.626" y1="36.2455" x2="179.397" y2="44.6061" gradientUnits="userSpaceOnUse">
<stop stop-color="#8894FF" stop-opacity="0"/>
<stop offset="0.0001" stop-color="#2883EE" stop-opacity="0.8"/>
<stop offset="1" stop-color="#8894FF"/>
</linearGradient>
<linearGradient id="paint1_linear" x1="172.689" y1="31.8098" x2="181.339" y2="37.8514" gradientUnits="userSpaceOnUse">
<stop stop-color="#EAB68D"/>
<stop offset="1" stop-color="#F2628E"/>
</linearGradient>
<linearGradient id="paint2_linear" x1="172.689" y1="38.652" x2="181.413" y2="44.6477" gradientUnits="userSpaceOnUse">
<stop offset="0.0001" stop-color="#C37BDC"/>
<stop offset="1" stop-color="#7572FF"/>
</linearGradient>
<linearGradient id="paint3_linear" x1="31.1717" y1="36.5868" x2="30.8439" y2="48.6031" gradientUnits="userSpaceOnUse">
<stop stop-color="#8894FF" stop-opacity="0"/>
<stop offset="0.0001" stop-color="#2883EE" stop-opacity="0.8"/>
<stop offset="1" stop-color="#8894FF"/>
</linearGradient>
<linearGradient id="paint4_linear" x1="21.2026" y1="30.2115" x2="33.6343" y2="38.895" gradientUnits="userSpaceOnUse">
<stop stop-color="#EAB68D"/>
<stop offset="1" stop-color="#F2628E"/>
</linearGradient>
<linearGradient id="paint5_linear" x1="21.2023" y1="40.0848" x2="33.7412" y2="48.7021" gradientUnits="userSpaceOnUse">
<stop offset="0.0001" stop-color="#C37BDC"/>
<stop offset="1" stop-color="#7572FF"/>
</linearGradient>
</defs>
</svg>
